# This file uses centimeters as units for non-parametric coordinates.

g default
v 0.737796 0.000000 -0.455983
v 0.737796 0.000000 0.455983
v -0.737796 0.000000 0.455983
v -0.737796 0.000000 -0.455983
v 0.000000 -0.455983 0.737796
v 0.000000 0.455983 0.737796
v 0.000000 0.455983 -0.737796
v 0.000000 -0.455983 -0.737796
v -0.455983 -0.737796 0.000000
v 0.455983 -0.737796 0.000000
v 0.455983 0.737796 0.000000
v -0.455983 0.737796 0.000000
v 0.000000 0.817255 0.000000
v 0.000000 -0.817255 0.000000
v -0.252546 -0.661174 -0.408628
v -0.252546 0.661174 -0.408628
v -0.408628 0.252546 -0.661174
v -0.408628 -0.252546 -0.661174
v -0.252546 0.661174 0.408628
v -0.252546 -0.661174 0.408628
v -0.408628 -0.252546 0.661174
v -0.408628 0.252546 0.661174
v -0.661174 0.408628 -0.252546
v -0.661174 0.408628 0.252546
v -0.817255 0.000000 0.000000
v -0.661174 -0.408628 0.252546
v -0.661174 -0.408628 -0.252546
v 0.252546 0.661174 0.408628
v 0.252546 -0.661174 0.408628
v 0.000000 0.000000 0.817255
v 0.408628 0.252546 0.661174
v 0.408628 -0.252546 0.661174
v 0.252546 -0.661174 -0.408628
v 0.252546 0.661174 -0.408628
v 0.408628 0.252546 -0.661174
v 0.000000 0.000000 -0.817255
v 0.408628 -0.252546 -0.661174
v 0.661174 0.408628 0.252546
v 0.661174 0.408628 -0.252546
v 0.817255 0.000000 0.000000
v 0.661174 -0.408628 -0.252546
v 0.661174 -0.408628 0.252546
vt 1.000000 1.000000
vt 1.000000 0.000000
vt 0.000000 0.000000
vt 1.000000 1.000000
vt 1.000000 0.000000
vt 1.000000 0.000000
vt 0.000000 0.000000
vt 1.000000 0.000000
vt 1.000000 1.000000
vt 1.000000 0.000000
vt 0.000000 0.000000
vt 0.000000 0.000000
vt 1.000000 0.000000
vt 0.000000 0.000000
vt 1.000000 1.000000
vt 0.000000 0.000000
vt 1.000000 1.000000
vt 1.000000 0.000000
vt 0.000000 0.000000
vt 1.000000 1.000000
vt 1.000000 0.000000
vt 0.000000 0.000000
vt 1.000000 1.000000
vt 1.000000 1.000000
vt 1.000000 0.000000
vt 1.000000 1.000000
vt 1.000000 1.000000
vt 1.000000 1.000000
vt 0.000000 0.000000
vt 1.000000 0.000000
vt 1.000000 1.000000
vt 1.000000 1.000000
vt 0.000000 0.000000
vt 1.000000 1.000000
vt 1.000000 1.000000
vt 0.000000 0.000000
vt 1.000000 0.000000
vt 1.000000 1.000000
vt 1.000000 1.000000
vt 1.000000 0.000000
vt 1.000000 1.000000
vt 1.000000 1.000000
vt 1.000000 1.000000
vt 1.000000 1.000000
vt 1.000000 1.000000
vt 1.000000 1.000000
vt 1.000000 1.000000
vt 1.000000 1.000000
vt 1.000000 1.000000
vt 1.000000 1.000000
vt 1.000000 1.000000
vt 1.000000 1.000000
vt 1.000000 1.000000
vt 1.000000 1.000000
vt 1.000000 1.000000
vt 1.000000 1.000000
vt 1.000000 1.000000
vt 1.000000 1.000000
vt 1.000000 1.000000
vt 1.000000 1.000000
vt 1.000000 1.000000
vt 1.000000 1.000000
vt 1.000000 1.000000
vt 0.000000 0.000000
vt 1.000000 0.000000
vt 1.000000 1.000000
vt 0.000000 0.000000
vt 1.000000 0.000000
vt 1.000000 1.000000
vt 0.000000 0.000000
vt 1.000000 0.000000
vt 1.000000 1.000000
vt 0.000000 0.000000
vt 1.000000 0.000000
vt 1.000000 1.000000
vt 0.000000 0.000000
vt 1.000000 0.000000
vt 1.000000 1.000000
vt 0.000000 0.000000
vt 1.000000 0.000000
vt 1.000000 1.000000
vt 1.000000 0.000000
vt 1.000000 1.000000
vt 0.000000 0.000000
vt 1.000000 0.000000
vt 1.000000 1.000000
vt 0.000000 0.000000
vt 1.000000 0.000000
vt 1.000000 1.000000
vt 0.000000 0.000000
vt 1.000000 0.000000
vt 1.000000 1.000000
vt 0.000000 0.000000
vt 1.000000 0.000000
vt 1.000000 1.000000
vt 0.000000 0.000000
vt 1.000000 0.000000
vt 1.000000 1.000000
vt 0.000000 0.000000
vt 1.000000 0.000000
vt 1.000000 1.000000
vt 0.000000 0.000000
vt 1.000000 0.000000
vt 1.000000 1.000000
vt 0.000000 0.000000
vt 1.000000 0.000000
vt 1.000000 1.000000
vt 0.000000 0.000000
vt 1.000000 0.000000
vt 1.000000 1.000000
vt 0.000000 0.000000
vt 1.000000 0.000000
vt 1.000000 1.000000
vt 0.000000 0.000000
vt 1.000000 0.000000
vt 1.000000 1.000000
vt 0.000000 0.000000
vt 1.000000 0.000000
vt 1.000000 1.000000
vt 0.000000 0.000000
vt 1.000000 0.000000
vt 1.000000 1.000000
vt 0.000000 0.000000
vt 1.000000 0.000000
vt 1.000000 1.000000
vt 0.000000 0.000000
vt 1.000000 0.000000
vt 0.000000 0.000000
vt 0.000000 0.000000
vt 1.000000 0.000000
vt 1.000000 1.000000
vt 0.000000 0.000000
vt 1.000000 0.000000
vt 0.000000 0.000000
vt 0.000000 0.000000
vt 1.000000 0.000000
vt 0.000000 0.000000
vt 1.000000 0.000000
vt 1.000000 1.000000
vt 1.000000 0.000000
vt 0.000000 0.000000
vt 1.000000 0.000000
vt 0.000000 0.000000
vt 1.000000 0.000000
vt 1.000000 1.000000
vt 1.000000 0.000000
vt 0.000000 0.000000
vt 1.000000 0.000000
vt 1.000000 1.000000
vt 0.000000 0.000000
vt 1.000000 0.000000
vt 1.000000 1.000000
vt 0.000000 0.000000
vt 1.000000 0.000000
vt 0.000000 0.000000
vt 1.000000 0.000000
vt 1.000000 1.000000
vt 0.000000 0.000000
vt 1.000000 0.000000
vt 0.000000 0.000000
vt 0.000000 0.000000
vt 1.000000 0.000000
vt 1.000000 1.000000
vt 0.000000 0.000000
vt 1.000000 0.000000
vt 1.000000 1.000000
vt 1.000000 0.000000
vt 0.000000 0.000000
vt 1.000000 0.000000
vt 1.000000 1.000000
vt 0.000000 0.000000
vt 1.000000 0.000000
vt 0.000000 0.000000
vt 0.000000 0.000000
vt 1.000000 0.000000
vt 1.000000 1.000000
vt 0.000000 0.000000
vt 1.000000 0.000000
vt 1.000000 1.000000
vt 0.000000 0.000000
vt 1.000000 0.000000
vt 0.000000 0.000000
vt 1.000000 0.000000
vt 1.000000 1.000000
vt 0.000000 0.000000
vt 1.000000 0.000000
vt 1.000000 1.000000
vt 1.000000 0.000000
vt 0.000000 0.000000
vt 1.000000 0.000000
vt 0.000000 0.000000
vt 1.000000 0.000000
vt 0.000000 0.000000
vt 0.000000 0.000000
vt 1.000000 0.000000
vt 0.000000 0.000000
vt 1.000000 0.000000
vt 0.000000 0.000000
vt 1.000000 0.000000
vt 0.000000 0.000000
vt 1.000000 0.000000
vt 1.000000 1.000000
vt 1.000000 0.000000
vt 0.000000 0.000000
vt 1.000000 0.000000
vt 0.000000 0.000000
vt 1.000000 0.000000
vt 1.000000 1.000000
vt 1.000000 1.000000
vt 0.000000 0.000000
vt 1.000000 0.000000
vt 0.000000 0.000000
vt 1.000000 0.000000
vt 0.000000 0.000000
vt 1.000000 0.000000
vt 1.000000 1.000000
vt 0.000000 0.000000
vt 1.000000 0.000000
vt 0.000000 0.000000
vt 0.000000 0.000000
vt 1.000000 0.000000
vt 1.000000 1.000000
vt 0.000000 0.000000
vt 1.000000 0.000000
vt 1.000000 1.000000
vt 0.000000 0.000000
vt 1.000000 0.000000
vt 0.000000 0.000000
vt 1.000000 0.000000
vt 0.000000 0.000000
vt 1.000000 0.000000
vt 0.000000 0.000000
vt 1.000000 0.000000
vt 0.000000 0.000000
vt 1.000000 0.000000
vt 0.000000 0.000000
vt 0.000000 0.000000
vt 1.000000 0.000000
vt 0.000000 0.000000
vt 1.000000 0.000000
vn 0.951050 -0.260842 0.165730
vn 0.951050 -0.260842 0.165730
vn 0.951049 -0.260842 0.165730
vn 0.951050 0.260842 -0.165730
vn 0.951050 0.260842 -0.165730
vn 0.951049 0.260842 -0.165730
vn 0.528998 0.000000 -0.848623
vn 0.528998 0.000000 -0.848623
vn 0.528998 0.000000 -0.848623
vn 0.690207 0.422051 -0.587781
vn 0.690207 0.422051 -0.587781
vn 0.690207 0.422051 -0.587781
vn 0.690207 -0.422051 -0.587781
vn 0.690207 -0.422051 -0.587781
vn 0.690207 -0.422051 -0.587781
vn 0.260842 -0.165730 0.951050
vn 0.260842 -0.165730 0.951050
vn 0.260842 -0.165730 0.951050
vn 0.587781 -0.690207 0.422051
vn 0.587781 -0.690207 0.422051
vn 0.587781 -0.690207 0.422051
vn 0.690207 0.422051 0.587781
vn 0.690207 0.422051 0.587781
vn 0.690207 0.422051 0.587781
vn -0.951050 -0.260842 -0.165730
vn -0.951050 -0.260842 -0.165730
vn -0.951049 -0.260842 -0.165730
vn -0.951050 0.260842 0.165730
vn -0.951050 0.260842 0.165730
vn -0.951049 0.260842 0.165730
vn -0.260842 -0.165730 0.951050
vn -0.260842 -0.165730 0.951050
vn -0.260842 -0.165730 0.951050
vn -0.690207 -0.422051 0.587781
vn -0.690207 -0.422051 0.587781
vn -0.690207 -0.422051 0.587781
vn -0.422051 0.587781 0.690207
vn -0.422051 0.587781 0.690207
vn -0.422051 0.587781 0.690207
vn -0.260842 0.165730 -0.951050
vn -0.260842 0.165730 -0.951050
vn -0.260842 0.165730 -0.951050
vn -0.690207 0.422051 -0.587781
vn -0.690207 0.422051 -0.587781
vn -0.690207 0.422051 -0.587781
vn -0.690207 -0.422051 -0.587781
vn -0.690207 -0.422051 -0.587781
vn -0.690207 -0.422051 -0.587781
vn 0.000000 -0.848623 0.528998
vn 0.000000 -0.848623 0.528998
vn 0.000000 -0.848623 0.528998
vn 0.000000 0.848623 0.528998
vn 0.000000 0.848623 0.528998
vn 0.000000 0.848623 0.528998
vn 0.000000 0.848623 -0.528998
vn 0.000000 0.848623 -0.528998
vn 0.000000 0.848623 -0.528998
vn 0.000000 -0.848623 -0.528998
vn 0.000000 -0.848623 -0.528998
vn 0.000000 -0.848623 -0.528998
vn -0.165730 -0.951050 -0.260842
vn -0.165730 -0.951050 -0.260842
vn -0.165730 -0.951050 -0.260842
vn 0.165730 -0.951050 -0.260842
vn 0.165730 -0.951050 -0.260842
vn 0.165730 -0.951050 -0.260842
vn 0.000000 -0.934173 -0.356822
vn 0.000000 -0.934173 -0.356822
vn 0.000000 -0.934173 -0.356822
vn 0.165730 0.951050 -0.260842
vn 0.165730 0.951050 -0.260842
vn 0.165730 0.951050 -0.260842
vn -0.165730 0.951050 -0.260842
vn -0.165730 0.951050 -0.260842
vn -0.165730 0.951050 -0.260842
vn 0.000000 0.934173 -0.356822
vn 0.000000 0.934173 -0.356822
vn 0.000000 0.934173 -0.356822
vn -0.165730 0.951050 0.260842
vn -0.165730 0.951050 0.260842
vn -0.165730 0.951050 0.260842
vn 0.165730 0.951050 0.260842
vn 0.165730 0.951050 0.260842
vn 0.165730 0.951050 0.260842
vn 0.000000 0.934173 0.356822
vn 0.000000 0.934173 0.356822
vn 0.000000 0.934173 0.356822
vn 0.165730 -0.951050 0.260842
vn 0.165730 -0.951050 0.260842
vn 0.165730 -0.951050 0.260842
vn -0.165730 -0.951050 0.260842
vn -0.165730 -0.951050 0.260842
vn -0.165730 -0.951050 0.260842
vn 0.000000 -0.934173 0.356822
vn 0.000000 -0.934173 0.356822
vn 0.000000 -0.934173 0.356822
vn -0.587781 -0.690207 -0.422051
vn -0.587781 -0.690207 -0.422051
vn -0.587781 -0.690207 -0.422051
vn -0.422051 -0.587781 -0.690207
vn -0.422051 -0.587781 -0.690207
vn -0.422051 -0.587781 -0.690207
vn -0.577350 -0.577350 -0.577350
vn -0.577350 -0.577350 -0.577350
vn -0.577350 -0.577350 -0.577350
vn -0.422051 0.587781 -0.690207
vn -0.422051 0.587781 -0.690207
vn -0.422051 0.587781 -0.690207
vn -0.587781 0.690207 -0.422051
vn -0.587781 0.690207 -0.422051
vn -0.587781 0.690207 -0.422051
vn -0.577350 0.577350 -0.577350
vn -0.577350 0.577350 -0.577350
vn -0.577350 0.577350 -0.577350
vn -0.528998 0.000000 -0.848623
vn -0.528998 0.000000 -0.848623
vn -0.528998 0.000000 -0.848623
vn -0.260842 -0.165730 -0.951050
vn -0.260842 -0.165730 -0.951050
vn -0.260842 -0.165730 -0.951050
vn -0.356822 0.000000 -0.934173
vn -0.356822 0.000000 -0.934173
vn -0.356822 0.000000 -0.934173
vn -0.690207 0.422051 0.587781
vn -0.690207 0.422051 0.587781
vn -0.690207 0.422051 0.587781
vn -0.587781 0.690207 0.422051
vn -0.587781 0.690207 0.422051
vn -0.587781 0.690207 0.422051
vn -0.577350 0.577350 0.577350
vn -0.577350 0.577350 0.577350
vn -0.577350 0.577350 0.577350
vn -0.422051 -0.587781 0.690207
vn -0.422051 -0.587781 0.690207
vn -0.422051 -0.587781 0.690207
vn -0.587781 -0.690207 0.422051
vn -0.587781 -0.690207 0.422051
vn -0.587781 -0.690207 0.422051
vn -0.577350 -0.577350 0.577350
vn -0.577350 -0.577350 0.577350
vn -0.577350 -0.577350 0.577350
vn -0.528998 0.000000 0.848623
vn -0.528998 0.000000 0.848623
vn -0.528998 0.000000 0.848623
vn -0.260842 0.165730 0.951050
vn -0.260842 0.165730 0.951050
vn -0.260842 0.165730 0.951050
vn -0.356822 0.000000 0.934173
vn -0.356822 0.000000 0.934173
vn -0.356822 0.000000 0.934173
vn -0.951050 0.260842 -0.165730
vn -0.951050 0.260842 -0.165730
vn -0.951049 0.260842 -0.165730
vn -0.848623 0.528998 0.000000
vn -0.848623 0.528998 0.000000
vn -0.848623 0.528998 0.000000
vn -0.934172 0.356822 0.000000
vn -0.934172 0.356822 0.000000
vn -0.934172 0.356822 0.000000
vn -0.951050 -0.260842 0.165730
vn -0.951050 -0.260842 0.165730
vn -0.951049 -0.260842 0.165730
vn -0.848623 -0.528998 0.000000
vn -0.848623 -0.528998 0.000000
vn -0.848623 -0.528998 0.000000
vn -0.934172 -0.356822 0.000000
vn -0.934172 -0.356822 0.000000
vn -0.934172 -0.356822 0.000000
vn 0.422051 0.587781 0.690207
vn 0.422051 0.587781 0.690207
vn 0.422051 0.587781 0.690207
vn 0.587781 0.690207 0.422051
vn 0.587781 0.690207 0.422051
vn 0.587781 0.690207 0.422051
vn 0.577350 0.577350 0.577350
vn 0.577350 0.577350 0.577350
vn 0.577350 0.577350 0.577350
vn 0.422051 -0.587781 0.690207
vn 0.422051 -0.587781 0.690207
vn 0.422051 -0.587781 0.690207
vn 0.690207 -0.422051 0.587781
vn 0.690207 -0.422051 0.587781
vn 0.690207 -0.422051 0.587781
vn 0.577350 -0.577350 0.577350
vn 0.577350 -0.577350 0.577350
vn 0.577350 -0.577350 0.577350
vn 0.260842 0.165730 0.951050
vn 0.260842 0.165730 0.951050
vn 0.260842 0.165730 0.951050
vn 0.528998 0.000000 0.848623
vn 0.528998 0.000000 0.848623
vn 0.528998 0.000000 0.848623
vn 0.356822 0.000000 0.934173
vn 0.356822 0.000000 0.934173
vn 0.356822 0.000000 0.934173
vn 0.422051 -0.587781 -0.690207
vn 0.422051 -0.587781 -0.690207
vn 0.422051 -0.587781 -0.690207
vn 0.587781 -0.690207 -0.422051
vn 0.587781 -0.690207 -0.422051
vn 0.587781 -0.690207 -0.422051
vn 0.577350 -0.577350 -0.577350
vn 0.577350 -0.577350 -0.577350
vn 0.577350 -0.577350 -0.577350
vn 0.587781 0.690207 -0.422051
vn 0.587781 0.690207 -0.422051
vn 0.587781 0.690207 -0.422051
vn 0.422051 0.587781 -0.690207
vn 0.422051 0.587781 -0.690207
vn 0.422051 0.587781 -0.690207
vn 0.577350 0.577350 -0.577350
vn 0.577350 0.577350 -0.577350
vn 0.577350 0.577350 -0.577350
vn 0.260842 0.165730 -0.951050
vn 0.260842 0.165730 -0.951050
vn 0.260842 0.165730 -0.951050
vn 0.260842 -0.165730 -0.951050
vn 0.260842 -0.165730 -0.951050
vn 0.260842 -0.165730 -0.951050
vn 0.356822 0.000000 -0.934173
vn 0.356822 0.000000 -0.934173
vn 0.356822 0.000000 -0.934173
vn 0.951050 0.260842 0.165730
vn 0.951050 0.260842 0.165730
vn 0.951049 0.260842 0.165730
vn 0.848623 0.528998 0.000000
vn 0.848623 0.528998 0.000000
vn 0.848623 0.528998 0.000000
vn 0.934172 0.356822 0.000000
vn 0.934172 0.356822 0.000000
vn 0.934172 0.356822 0.000000
vn 0.951050 -0.260842 -0.165730
vn 0.951050 -0.260842 -0.165730
vn 0.951049 -0.260842 -0.165730
vn 0.848623 -0.528998 0.000000
vn 0.848623 -0.528998 0.000000
vn 0.848623 -0.528998 0.000000
vn 0.934172 -0.356822 0.000000
vn 0.934172 -0.356822 0.000000
vn 0.934172 -0.356822 0.000000
s off
g Sphere2_Mesh
f 2/64/1 42/65/2 40/66/3
f 1/67/4 39/68/5 40/69/6
f 1/70/7 37/71/8 35/72/9
f 1/73/10 35/74/11 39/75/12
f 1/76/13 41/77/14 37/78/15
f 5/79/16 32/80/17 30/81/18
f 10/12/19 42/82/20 29/83/21
f 2/84/22 38/85/23 31/86/24
f 4/87/25 27/88/26 25/89/27
f 3/90/28 24/91/29 25/92/30
f 5/93/31 30/94/32 21/95/33
f 3/96/34 26/97/35 21/98/36
f 6/99/37 19/100/38 22/101/39
f 7/102/40 36/103/41 17/104/42
f 4/105/43 23/106/44 17/107/45
f 4/108/46 18/109/47 27/110/48
f 5/111/49 20/112/50 29/113/51
f 6/114/52 28/115/53 19/116/54
f 7/117/55 16/118/56 34/119/57
f 8/120/58 33/121/59 15/122/60
f 15/123/61 14/124/62 9/125/63
f 14/126/64 33/127/65 10/44/66
f 15/128/67 33/40/68 14/42/69
f 34/129/70 13/130/71 11/131/72
f 13/132/73 16/133/74 12/47/75
f 34/134/76 16/37/77 13/45/78
f 19/135/79 13/136/80 12/49/81
f 13/137/82 28/138/83 11/139/84
f 19/36/85 28/140/86 13/48/87
f 29/141/88 14/142/89 10/51/90
f 14/143/91 20/144/92 9/145/93
f 29/33/94 20/146/95 14/50/96
f 27/147/97 15/148/98 9/149/99
f 15/150/100 18/151/101 8/152/102
f 27/153/103 18/154/104 15/41/105
f 17/155/106 16/156/107 7/157/108
f 16/158/109 23/159/110 12/53/111
f 17/160/112 23/30/113 16/52/114
f 17/161/115 18/162/116 4/163/117
f 18/164/118 36/165/119 8/166/120
f 17/29/121 36/167/122 18/31/123
f 22/168/124 24/169/125 3/170/126
f 24/171/127 19/172/128 12/55/129
f 22/173/130 19/25/131 24/54/132
f 21/174/133 20/175/134 5/176/135
f 20/177/136 26/178/137 9/179/138
f 21/180/139 26/181/140 20/32/141
f 21/182/142 22/183/143 3/184/144
f 22/185/145 30/186/146 6/187/147
f 21/22/148 30/188/149 22/26/150
f 25/189/151 23/190/152 4/17/153
f 23/191/154 24/192/155 12/57/156
f 25/193/157 24/21/158 23/56/159
f 25/194/160 26/195/161 3/20/162
f 26/196/163 27/197/164 9/43/165
f 25/19/166 27/18/167 26/23/168
f 31/198/169 28/199/170 6/34/171
f 28/200/172 38/201/173 11/202/174
f 31/16/175 38/203/176 28/35/177
f 29/204/178 32/205/179 5/9/180
f 32/206/181 42/207/182 2/208/183
f 29/14/184 42/13/185 32/209/186
f 30/210/187 31/211/188 6/24/189
f 31/212/190 32/213/191 2/58/192
f 30/11/193 32/10/194 31/59/195
f 37/214/196 33/215/197 8/216/198
f 33/217/199 41/218/200 10/61/201
f 37/219/202 41/8/203 33/60/204
f 39/220/205 34/221/206 11/222/207
f 34/223/208 35/224/209 7/225/210
f 39/226/211 35/227/212 34/38/213
f 35/228/214 36/229/215 7/27/216
f 36/230/217 37/231/218 8/39/219
f 35/7/220 37/6/221 36/28/222
f 40/232/223 38/233/224 2/1/225
f 38/234/226 39/235/227 11/46/228
f 40/236/229 39/5/230 38/15/231
f 40/237/232 41/238/233 1/4/234
f 41/239/235 42/240/236 10/63/237
f 40/3/238 42/2/239 41/62/240
